<?xml version="1.0" encoding="utf-8"?>
<!-- Generator: Adobe Illustrator 25.2.3, SVG Export Plug-In . SVG Version: 6.00 Build 0)  -->
<svg version="1.1" xmlns="http://www.w3.org/2000/svg" xmlns:xlink="http://www.w3.org/1999/xlink" x="0px" y="0px"
	 viewBox="0 0 1076.1 1323" style="enable-background:new 0 0 1076.1 1323;" xml:space="preserve">
<style type="text/css">
	.st0{fill-rule:evenodd;clip-rule:evenodd;fill:#8FA3BC;}
	.st1{fill-rule:evenodd;clip-rule:evenodd;fill:#0A2445;}
	.st2{fill-rule:evenodd;clip-rule:evenodd;fill:#FEEDB4;}
	.st3{fill:#FBCB22;}
	.st4{fill-rule:evenodd;clip-rule:evenodd;fill:#FBCB22;}
	.st5{fill:#ECA400;}
	.st6{fill-rule:evenodd;clip-rule:evenodd;fill:#ECA400;}
	.st7{fill:#FEEDB4;}
</style>
<g id="BG" xmlns:serif="http://www.serif.com/">
</g>
<g id="Trophy5">
	<g transform="matrix(1,0,0,1,-9.62389,0)">
		<g transform="matrix(0.926782,0,0,1,22.3953,-6.43633)">
			<path class="st0" d="M880.8,1220c0-31.6-27.7-57.3-61.8-57.3H286.2c-34.1,0-61.8,25.6-61.8,57.3v0c0,31.6,27.7,57.3,61.8,57.3
				H819C853.1,1277.2,880.8,1251.6,880.8,1220C880.8,1220,880.8,1220,880.8,1220z"/>
		</g>
		<g>
			<g transform="matrix(1.02324,0,0,1,-3.86902,0)">
				<rect x="270.2" y="995.2" class="st1" width="512" height="224.3"/>
			</g>
			<g transform="matrix(0.599497,0,0,0.612657,70.3447,148.181)">
				<rect x="518.3" y="1450.7" class="st2" width="512" height="224.3"/>
			</g>
			<g transform="matrix(0.507716,0,0,0.466495,86.4192,204.007)">
				<path class="st3" d="M1138.6,2052.3h-512c-4.8,0-8.7-4.2-8.7-9.5v-224.4c0-5.2,3.9-9.5,8.7-9.5h512c4.8,0,8.7,4.2,8.7,9.5v224.4
					C1147.3,2048.1,1143.4,2052.3,1138.6,2052.3z M635.3,2033.4h494.6V1828H635.3V2033.4z"/>
			</g>
		</g>
		<g transform="matrix(1.00265,0,0,1.00265,-233.156,27.8214)">
			<path class="st4" d="M504.4,936.6c1.6-46.3,149.9-56,261.2-130.7c112.1,84.2,259.6,84.5,261.2,130.7h0v28.1H504.4L504.4,936.6
				L504.4,936.6z"/>
			<g transform="matrix(0.798699,0,0,1,81.6679,203.879)">
				<path class="st5" d="M1134.3,737.5H578.4c-2.5,0-4.5-1.6-4.5-3.6s2-3.6,4.5-3.6h555.9c2.5,0,4.5,1.6,4.5,3.6
					S1136.8,737.5,1134.3,737.5z"/>
			</g>
		</g>
		<g transform="matrix(1.00265,0,0,1.00265,-237.139,42.1802)">
			<path class="st6" d="M702.2,647.8c0,0,14.9,22.4,27.4,61.9c4.1,12.9,8.2,26.6,8,41.3c-0.1,14.8-4.7,28.3-8.9,41.3
				c-12.5,39.1-26.5,61.9-26.5,61.9c0,37.2,134.8,37.2,134.8,0c0,0-14.1-22.8-26.5-61.9c-4.1-13-8.7-26.5-8.9-41.3
				c-0.1-14.6,4-28.3,8-41.3c12.4-39.5,27.4-61.9,27.4-61.9c0-37.2-30.2-67.4-67.4-67.4C732.4,580.4,702.2,610.6,702.2,647.8z"/>
		</g>
		<g>
			<path class="st5" d="M237.3,536.2c-38.7,0-83.5-9.8-119.8-38c-44.3-34.4-67.7-87.9-69.7-159.1C46,278.6,62.1,235.6,95.6,211.2
				c52-37.9,124.1-13,127.2-11.9c11.7,4.1,17.8,17,13.7,28.7c-4.1,11.7-16.9,17.8-28.6,13.7c-0.8-0.3-53.3-18-85.9,5.9
				c-20.7,15.2-30.6,45.5-29.3,90.2C94.2,395,111.9,437,145,462.7c39.6,30.7,93.5,32.6,127.7,24.9c12.1-2.7,24.1,4.9,26.9,17
				c2.7,12.1-4.9,24.1-17,26.9C269.4,534.4,253.9,536.2,237.3,536.2z"/>
			<g transform="matrix(-1,0,0,1,350.28,0)">
				<path class="st5" d="M-479.7,536.2c16.7,0,32.2-1.8,45.3-4.8c12.1-2.7,19.7-14.8,17-26.9c-2.7-12.1-14.8-19.7-26.9-17
					c-34.2,7.7-88.1,5.8-127.7-24.9c-33.1-25.7-50.7-67.7-52.4-124.8c-1.3-44.7,8.6-75,29.3-90.2c32.7-24,85.4-6.1,85.9-5.9
					c11.7,4.1,24.5-2.1,28.6-13.8c4.1-11.7-2-24.5-13.7-28.6c-3-1.1-75.2-26-127.2,11.9c-33.5,24.4-49.7,67.4-47.9,127.9
					c2,71.2,25.5,124.7,69.7,159.1C-563.3,526.4-518.4,536.2-479.7,536.2z"/>
			</g>
		</g>
		<g>
			<g transform="matrix(1.00265,0,0,1.00265,-233.356,42.1802)">
				<path class="st4" d="M427.9,186.1V95.8c0-37.1,30.1-67.2,67.2-67.2h539.7c17.8,0,34.9,7.1,47.5,19.7
					c12.6,12.6,19.7,29.7,19.7,47.5c0,43.4,0,91.8,0,91.8c-0.6,273.4-151.4,495.1-337.1,495.1C578.9,682.8,427.9,460.2,427.9,186.1z
					"/>
			</g>
			<g transform="matrix(1.00265,0,0,1.00265,-233.156,27.8214)">
				<g transform="matrix(0.908634,0,0,0.908634,37.1867,17.0308)">
					<circle class="st2" cx="799.7" cy="388.5" r="189.6"/>
				</g>
				<g transform="matrix(1.03609,0,0,1.03609,-14.6889,-8.2892)">
					<path class="st5" d="M751.4,559.1c-106.9,0-193.9-87-193.9-193.9s87-193.9,193.9-193.9s193.9,87,193.9,193.9
						S858.3,559.1,751.4,559.1z M751.4,179.9c-102.1,0-185.2,83.1-185.2,185.2s83.1,185.2,185.2,185.2s185.2-83.1,185.2-185.2
						S853.5,179.9,751.4,179.9z"/>
				</g>
			</g>
			<g transform="matrix(1.00265,0,0,1.00265,-233.156,27.8214)">
				<path class="st7" d="M531,456.1c-5.2,0-10.2-3.1-12.4-8.2c-58.8-138.4-52.7-269.5-52.4-275c0.4-7.4,6.7-13.2,14.2-12.8
					c7.4,0.4,13.1,6.7,12.8,14.2c-0.1,1.7-5.9,130.8,50.3,263c2.9,6.9-0.3,14.8-7.1,17.7C534.6,455.8,532.8,456.1,531,456.1z"/>
				<path class="st7" d="M591.6,562.7c-4.1,0-8.2-1.9-10.8-5.4c-14.1-18.9-27.1-39.4-38.7-60.8c-3.6-6.5-1.1-14.7,5.4-18.3
					c6.5-3.6,14.7-1.1,18.3,5.4c11,20.3,23.4,39.7,36.7,57.6c4.4,6,3.2,14.4-2.8,18.9C597.2,561.9,594.4,562.7,591.6,562.7z"/>
			</g>
		</g>
		<g transform="matrix(1.00265,0,0,1.00265,-233.156,27.8214)">
			<g transform="matrix(1.0673,0,0,0.796767,-27.3914,25.3546)">
				<path class="st2" d="M1078.4,68.6c0-25.7-15.6-46.5-34.7-46.5c-115.9,0-488.7,0-604.7,0c-19.2,0-34.7,20.8-34.7,46.5
					c0,0,0,0,0,0c0,25.7,15.6,46.5,34.7,46.5c115.9,0,488.7,0,604.7,0C1062.9,115.2,1078.4,94.3,1078.4,68.6
					C1078.4,68.6,1078.4,68.6,1078.4,68.6z"/>
			</g>
			<g transform="matrix(1.08591,0,0,1,-35.4685,13.0164)">
				<path class="st3" d="M1015.7,73.5H459.8c-3.3,0-5.9-2.9-5.9-6.5c0-3.6,2.7-6.5,5.9-6.5h555.9c3.3,0,5.9,2.9,5.9,6.5
					C1021.7,70.6,1019,73.5,1015.7,73.5z"/>
			</g>
		</g>
	</g>
	<path class="st3" d="M466.5,487.1c-6-2.3-12.1-4.5-18.1-7c-16.6-7-32.3-15.7-45.3-28.3c-15.1-14.5-24-31.9-23.5-53.2
		c0.4-16.8,6.4-32,16-45.5c18.6-26.3,43.5-43.7,75-50.9c5.3-1.2,10.7-1.6,16.1-2.4c0.1,0.3,0.2,0.5,0.2,0.8c-2,1.1-4,2.2-6,3.3
		c-8.5,4.8-16.6,10.1-23.1,17.6c-1.6,1.9-3,3.9-4.2,6c-4.9,8.8-3.7,17.9,3.8,24.7c10.1,9.1,22.1,12.8,35.6,10.7
		c8.8-1.3,13.1-6,14-14.8c1.6-14.3,2.9-28.5,4.4-42.8c0.1-1.3,0.3-2.6,0.9-4c1.4,3.9,2.8,7.7,4,11.6c0.5,1.6,1.3,2.1,3,2
		c3.6-0.2,7.2-0.2,10.7,0c1.6,0.1,2.3-0.4,2.8-1.9c1.2-3.9,2.6-7.6,4.5-11.5c0.3,2.9,0.7,5.8,1,8.7c1.4,13.3,2.7,26.7,4.1,40
		c0.6,6.2,5.7,11.3,13.2,12.5c13.6,2.3,25.7-1.3,36-10.4c8-7.1,9.1-16.4,3.7-25.6c-3.6-6.2-8.8-11.1-14.7-15.1
		c-5.8-4-11.9-7.6-18.5-11.7c4.2,0.4,8,0.5,11.6,1.3c41.9,8.6,72.9,31.7,90.2,71.1c12.4,28,5.7,56.4-16.4,78.4
		c-13.3,13.3-29.4,22.3-46.6,29.5c-6,2.5-12.1,4.7-18.3,7.1c6.7-7.7,13.4-14.9,19.3-22.6c5.6-7.3,10.7-15,15.6-22.9
		c1.8-2.9,2.6-6.6,3.1-10.1c0.7-5-2.4-8.1-6.7-10c-5.4-2.4-10.9-1.8-16.3-0.1c-9.6,3-17.5,8.8-24.6,15.7
		c-5.6,5.5-10.9,11.5-16.1,17.1c0.7-2.6,1.6-5.5,2.2-8.5c0.9-4.9,0.5-9.8-2.1-14.3c-3-5.1-8.3-6.5-13-2.8c-2.6,2-4.9,4.7-6.6,7.6
		c-6,9.9-8.4,21-10.1,32.2c-1.1,6.9-1.8,13.8-2.6,20.3c-1-7.6-1.9-15.6-3.2-23.6c-1.6-9.5-3.9-18.9-8.7-27.4c-1.8-3.2-4.2-6.3-7-8.7
		c-5.1-4.4-11-2.9-14,3.2c-2.9,5.7-2.5,11.7-0.9,17.7c0.4,1.4,0.9,2.8,1.5,4.5c-4.7-5.1-9-10.2-13.6-14.9
		c-6.9-7-14.6-13.2-23.8-16.9c-5.2-2.1-10.6-3.4-16.3-2.1c-8.6,1.9-12.3,8.3-9,16.5c3.6,9.2,9.3,17,15.4,24.6
		C452,470.3,459.3,478.6,466.5,487.1z"/>
</g>
<g id="Trophy4">
</g>
<g id="Trophy3">
</g>
<g id="Trophy2">
</g>
<g id="Trophy1">
</g>
</svg>
